<?xml version="1.0" standalone="no"?>
<!DOCTYPE svg PUBLIC "-//W3C//DTD SVG 20010904//EN"
 "http://www.w3.org/TR/2001/REC-SVG-20010904/DTD/svg10.dtd">
<svg version="1.0" xmlns="http://www.w3.org/2000/svg"
 width="1689.000000pt" height="2129.000000pt" viewBox="0 0 1689.000000 2129.000000"
 preserveAspectRatio="xMidYMid meet">

<g transform="translate(0.000000,2129.000000) scale(0.100000,-0.100000)"
fill="#000000" stroke="none">
<path d="M6675 21112 c-31 -19 -113 -107 -207 -221 -29 -36 -84 -89 -123 -118
-97 -76 -335 -189 -560 -268 -765 -269 -1417 -593 -2195 -1092 -124 -80 -227
-148 -230 -153 -3 -4 -70 -56 -150 -115 -336 -251 -461 -377 -896 -905 -1067
-1296 -1535 -2086 -1865 -3145 -27 -88 -53 -169 -58 -180 -5 -11 -46 -159 -90
-330 -196 -758 -210 -876 -218 -1837 -8 -945 23 -1927 82 -2613 73 -849 400
-2398 681 -3220 109 -321 443 -1238 522 -1435 232 -580 386 -881 558 -1091 73
-89 249 -258 354 -340 179 -140 424 -296 720 -461 116 -65 878 -468 995 -526
314 -157 1137 -557 1255 -611 618 -276 976 -401 1617 -560 275 -69 293 -75
377 -135 89 -63 159 -144 266 -302 153 -228 234 -321 470 -538 172 -159 543
-485 710 -626 244 -204 385 -260 653 -260 315 1 507 80 896 370 407 304 743
628 906 875 57 88 84 119 132 152 134 94 355 188 828 351 629 217 903 322
1155 442 102 49 221 98 265 110 44 12 105 29 135 37 123 34 530 220 1065 486
416 207 728 393 935 558 215 170 408 415 490 622 84 212 339 1390 419 1942
158 1080 221 1920 221 2940 0 1067 -73 1903 -235 2720 -114 572 -222 921 -540
1750 -59 154 -111 285 -115 290 -4 6 -34 71 -65 145 -223 526 -427 929 -780
1545 -368 643 -374 651 -540 900 -274 410 -611 838 -964 1225 -455 498 -1064
1082 -1324 1268 -234 168 -640 398 -1094 619 -131 64 -240 119 -243 123 -7 11
-715 312 -1031 438 -776 310 -1425 521 -1987 646 -238 53 -375 97 -503 162
-119 59 -177 99 -314 214 -154 129 -214 163 -290 168 -46 2 -67 -1 -90 -16z
m570 -862 c230 -13 425 -42 567 -83 62 -19 282 -89 488 -156 397 -130 653
-209 1020 -315 430 -124 647 -217 919 -390 74 -47 133 -86 130 -86 -2 0 -66
11 -143 25 -215 38 -369 54 -726 75 -633 36 -1693 54 -2445 40 -598 -11 -760
-18 -1200 -56 -1000 -85 -1868 -154 -1924 -154 -9 0 75 47 185 104 206 107
342 188 427 255 121 95 883 440 1227 555 296 99 755 176 1120 189 47 2 105 4
130 5 25 1 126 -3 225 -8z m1785 -1210 c770 -27 1293 -84 1726 -190 426 -105
660 -222 1075 -542 475 -365 1091 -925 1289 -1169 167 -206 324 -392 454 -538
209 -236 435 -543 706 -961 548 -845 827 -1408 1126 -2268 385 -1107 680
-2354 788 -3332 67 -603 60 -915 -24 -1081 -30 -58 -110 -140 -167 -172 -68
-36 -814 -333 -1088 -432 -829 -299 -1754 -531 -2860 -714 -2224 -370 -4268
-253 -6845 390 -496 123 -838 218 -1095 304 -770 255 -1998 769 -2951 1235
-269 132 -319 169 -381 285 -133 253 -158 635 -150 2269 7 1377 17 1529 142
2026 152 608 335 1167 527 1619 123 288 415 875 516 1037 265 425 842 1135
1269 1561 152 152 259 242 351 296 370 216 1007 288 3117 352 1152 35 1945 43
2475 25z m-8026 -9704 c334 -177 671 -346 921 -461 2856 -1314 6439 -1929
9370 -1609 582 63 1017 143 1800 330 1020 244 1814 480 2405 716 490 196 636
224 721 139 80 -79 98 -225 80 -631 -43 -942 -200 -2457 -317 -3045 -77 -389
-126 -535 -229 -681 -58 -81 -284 -298 -431 -412 -523 -407 -1531 -959 -2096
-1147 -292 -97 -904 -259 -1223 -324 -620 -126 -1399 -206 -2210 -227 -547
-14 -1003 31 -2043 201 -1173 192 -1747 323 -2182 497 -170 68 -552 257 -855
423 -443 243 -2369 1344 -2392 1368 -12 13 -362 756 -458 972 -303 685 -632
1673 -856 2567 -116 464 -180 774 -249 1203 -44 275 -43 265 -33 265 3 0 128
-65 277 -144z m8119 -7753 c65 -512 60 -966 -11 -1045 -8 -10 -25 -18 -37 -18
-54 0 -232 151 -579 490 -273 267 -476 495 -476 536 0 32 101 59 266 73 55 5
264 9 465 10 l366 1 6 -47z m1517 -52 c21 -6 24 -12 22 -40 -5 -47 -89 -204
-157 -297 -111 -147 -454 -474 -532 -504 -12 -5 -48 -29 -80 -54 -70 -53 -200
-126 -226 -126 -73 0 -146 139 -182 345 -32 184 -19 495 23 570 38 67 138 89
462 104 220 10 637 11 670 2z"/>
<path d="M5770 18219 c-165 -255 -385 -572 -587 -845 -312 -421 -375 -551
-323 -659 24 -50 12 -40 435 -335 197 -137 377 -269 592 -433 91 -70 188 -117
240 -117 37 0 41 4 114 98 220 282 419 592 419 653 0 73 -392 349 -495 349
-39 0 -47 -6 -145 -118 -60 -68 -91 -70 -156 -10 -83 77 -92 126 -39 234 67
137 219 334 258 334 27 0 175 -81 317 -174 170 -111 740 -525 740 -537 0 -5
-51 -80 -113 -166 -223 -312 -579 -816 -902 -1278 -504 -723 -630 -885 -688
-885 -99 0 -1017 667 -1017 739 0 44 123 224 204 299 113 104 272 117 307 24
14 -35 6 -80 -25 -149 -29 -62 -33 -120 -12 -162 23 -44 127 -134 249 -215
146 -97 201 -122 233 -106 28 15 107 104 196 220 90 117 368 516 368 528 0 5
-57 47 -127 94 -121 80 -329 231 -773 558 -243 179 -466 330 -488 330 -11 -1
-89 -110 -219 -308 -222 -337 -394 -573 -468 -641 -44 -41 -50 -43 -95 -39
-36 4 -72 20 -146 65 -130 80 -162 90 -210 67 -20 -9 -57 -42 -82 -73 -83 -99
-345 -482 -336 -490 5 -5 284 -203 619 -441 336 -238 788 -560 1005 -715 642
-458 959 -680 1245 -875 505 -343 675 -473 707 -540 23 -48 47 -70 77 -70 14
0 56 -16 93 -34 256 -132 962 -676 1023 -790 l19 -36 -26 -54 c-17 -33 -54
-80 -93 -118 -185 -176 -153 -276 142 -451 51 -30 112 -60 137 -67 67 -18 103
4 206 131 102 125 183 209 203 209 24 0 52 -135 157 -760 114 -685 200 -1283
186 -1297 -10 -11 -118 41 -229 111 -132 83 -191 110 -223 102 -14 -4 -43 -23
-66 -44 -51 -46 -311 -369 -306 -381 2 -5 67 -59 145 -120 78 -61 164 -137
192 -168 75 -84 119 -179 131 -280 5 -44 16 -97 24 -117 24 -59 109 -140 179
-172 67 -31 72 -31 372 -23 122 3 165 -11 307 -105 105 -68 169 -92 220 -82
82 16 147 80 254 252 107 172 102 186 -151 348 -130 84 -205 149 -205 179 0
11 13 23 35 32 90 38 976 190 1655 284 287 40 403 51 414 40 20 -19 -20 -104
-144 -303 -53 -87 -61 -132 -30 -180 28 -46 217 -198 294 -236 103 -52 197
-38 252 37 30 40 68 118 88 179 19 57 63 106 119 129 20 8 86 19 146 24 155
13 258 65 336 170 86 118 89 238 9 334 -34 40 -32 98 6 173 16 32 91 141 166
242 75 101 135 184 133 186 -6 6 -481 306 -501 317 -14 7 -52 -34 -220 -236
-192 -230 -203 -242 -211 -217 -12 45 -214 1274 -252 1533 -39 274 -65 493
-65 557 0 39 2 42 28 42 37 0 110 -36 222 -110 175 -116 215 -122 297 -47 41
37 285 364 298 399 4 11 -37 37 -153 97 -249 130 -303 189 -322 361 -13 113
-51 208 -120 302 -56 76 -116 124 -167 134 -28 5 -52 -3 -143 -46 -99 -48
-113 -52 -156 -46 -65 9 -134 42 -255 124 -263 177 -303 167 -469 -113 -34
-57 -68 -124 -75 -149 -19 -63 1 -97 95 -163 114 -80 195 -147 225 -188 25
-32 27 -38 13 -51 -60 -60 -1500 -331 -1958 -368 -101 -9 -109 -2 -81 66 20
50 133 224 236 365 l46 62 -38 24 c-107 67 -452 267 -459 266 -5 0 -89 -94
-187 -209 l-179 -208 -171 110 c-195 124 -348 237 -376 276 -23 33 -19 44 51
161 75 125 183 286 426 634 118 169 213 310 211 311 -19 17 -775 550 -876 617
-300 201 -469 295 -511 284 -36 -9 -138 -116 -214 -226 -36 -52 -123 -188
-193 -303 -105 -173 -124 -211 -113 -222 53 -51 374 -300 419 -324 89 -47 122
-40 183 43 49 66 127 91 202 62 131 -50 84 -199 -154 -488 l-64 -78 -27 18
c-14 9 -120 77 -235 151 -116 74 -246 159 -290 190 -247 171 -502 383 -489
405 3 7 273 388 598 847 325 459 697 984 825 1165 128 182 239 336 246 344 10
11 62 -22 311 -200 385 -275 524 -380 597 -448 121 -116 119 -141 -31 -394
-125 -211 -164 -232 -271 -152 -102 77 -119 140 -57 221 56 73 43 126 -54 227
-120 127 -283 246 -365 268 -94 25 -147 -14 -246 -180 -85 -144 -171 -259
-311 -414 -60 -67 -106 -124 -102 -128 18 -15 589 -444 728 -546 378 -276 608
-413 694 -413 35 0 21 -17 240 290 92 129 237 330 322 445 362 489 542 765
522 799 -53 94 -1907 1471 -2983 2216 -303 210 -362 253 -593 439 -93 75 -177
142 -186 149 -17 11 -31 -8 -161 -209z m5000 -6728 c114 -43 199 -135 221
-239 25 -119 -26 -263 -168 -479 -101 -152 -135 -222 -131 -270 3 -35 7 -38
93 -82 116 -59 174 -100 245 -172 153 -155 201 -296 155 -455 -35 -124 -100
-193 -200 -214 -116 -24 -245 21 -530 184 l-199 114 -95 -101 c-193 -206 -367
-379 -410 -408 -103 -68 -164 -59 -320 45 -157 104 -212 182 -196 278 13 75
93 212 244 415 l150 203 -157 132 c-86 73 -185 161 -219 195 -202 207 -242
414 -107 562 59 66 114 93 198 99 135 8 251 -43 546 -242 l184 -124 116 177
c156 235 262 343 379 386 53 20 143 18 201 -4z"/>
<path d="M3875 7389 c-91 -12 -237 -51 -333 -90 -184 -73 -331 -198 -402 -341
-101 -206 -90 -423 35 -673 141 -282 409 -543 802 -779 191 -116 382 -242 458
-303 65 -53 78 -82 48 -115 -15 -17 -27 -20 -78 -15 -141 11 -335 104 -815
390 -423 252 -534 291 -609 216 -35 -35 -63 -115 -90 -259 -63 -338 -54 -420
58 -543 247 -269 1027 -796 1575 -1063 349 -170 702 -255 1067 -255 296 0 447
44 554 163 100 112 181 288 211 462 20 112 14 362 -11 476 -43 195 -140 416
-251 571 -130 182 -374 392 -641 551 -70 42 -238 133 -372 202 -372 192 -565
314 -577 363 -9 35 20 71 62 79 157 29 448 -71 998 -344 365 -181 506 -244
658 -297 170 -59 203 -51 238 62 43 139 51 460 15 611 -49 206 -181 303 -678
499 -899 354 -1490 487 -1922 432z"/>
<path d="M14487 7324 c-440 -79 -2077 -594 -2465 -774 -63 -30 -84 -45 -93
-67 -28 -74 -28 -685 1 -1338 31 -700 102 -1958 110 -1968 8 -9 322 80 671
189 649 202 1281 471 1709 727 502 300 868 657 935 913 22 85 29 250 16 389
-12 137 -31 217 -67 289 -71 143 -174 186 -447 186 l-148 0 168 179 c173 184
223 252 256 350 61 181 37 554 -47 719 -54 106 -142 176 -261 207 -73 19 -231
18 -338 -1z m-523 -1059 c30 -33 50 -104 41 -146 -13 -58 -124 -158 -240 -217
-206 -103 -340 -132 -402 -86 -47 34 -63 79 -63 172 0 125 27 163 145 202 63
21 428 97 473 99 13 1 33 -10 46 -24z m113 -1081 c24 -24 25 -30 21 -107 -5
-106 -48 -193 -121 -248 -109 -82 -365 -189 -450 -189 -38 0 -49 5 -71 30 -35
42 -79 184 -73 234 7 49 53 98 129 137 97 49 456 167 511 168 17 1 38 -9 54
-25z"/>
<path d="M6980 5868 c0 -1017 20 -1708 55 -1913 16 -93 85 -241 162 -350 205
-288 556 -563 833 -653 205 -67 602 -102 1167 -102 659 0 965 38 1242 155 384
162 695 461 756 728 76 334 168 1813 151 2417 -7 269 -10 288 -43 301 -27 10
-291 -2 -563 -26 -175 -16 -1154 -116 -1156 -118 -1 -1 -7 -281 -13 -622 -24
-1273 -41 -1555 -102 -1695 -43 -96 -89 -119 -241 -120 -135 0 -198 13 -251
54 -74 56 -112 164 -138 391 -8 66 -13 423 -16 1055 l-5 956 -391 38 c-686 67
-883 96 -1236 187 -106 27 -197 49 -202 49 -5 0 -9 -320 -9 -732z"/>
</g>
</svg>
